<svg xmlns="http://www.w3.org/2000/svg" viewBox="0 0 450 540" width="450" height="540">
  <rect width="450" height="540" rx="30" fill="#eef1f6"/>
  <g fill="#0f1a2b"><rect x="150.5" y="40.5" width="9" height="9" rx="2.5"/><rect x="160.5" y="40.5" width="9" height="9" rx="2.5"/><rect x="180.5" y="40.5" width="9" height="9" rx="2.5"/><rect x="190.5" y="40.5" width="9" height="9" rx="2.5"/><rect x="210.5" y="40.5" width="9" height="9" rx="2.5"/><rect x="220.5" y="40.5" width="9" height="9" rx="2.5"/><rect x="230.5" y="40.5" width="9" height="9" rx="2.5"/><rect x="240.5" y="40.5" width="9" height="9" rx="2.5"/><rect x="260.5" y="40.5" width="9" height="9" rx="2.5"/><rect x="280.5" y="40.5" width="9" height="9" rx="2.5"/><rect x="290.5" y="40.5" width="9" height="9" rx="2.5"/><rect x="300.5" y="40.5" width="9" height="9" rx="2.5"/><rect x="310.5" y="40.5" width="9" height="9" rx="2.5"/><rect x="320.5" y="40.5" width="9" height="9" rx="2.5"/><rect x="120.5" y="50.5" width="9" height="9" rx="2.5"/><rect x="130.5" y="50.5" width="9" height="9" rx="2.5"/><rect x="150.5" y="50.5" width="9" height="9" rx="2.5"/><rect x="180.5" y="50.5" width="9" height="9" rx="2.5"/><rect x="200.5" y="50.5" width="9" height="9" rx="2.5"/><rect x="250.5" y="50.5" width="9" height="9" rx="2.5"/><rect x="260.5" y="50.5" width="9" height="9" rx="2.5"/><rect x="270.5" y="50.5" width="9" height="9" rx="2.5"/><rect x="290.5" y="50.5" width="9" height="9" rx="2.5"/><rect x="300.5" y="50.5" width="9" height="9" rx="2.5"/><rect x="130.5" y="60.5" width="9" height="9" rx="2.5"/><rect x="140.5" y="60.5" width="9" height="9" rx="2.5"/><rect x="160.5" y="60.5" width="9" height="9" rx="2.5"/><rect x="180.5" y="60.5" width="9" height="9" rx="2.5"/><rect x="190.5" y="60.5" width="9" height="9" rx="2.5"/><rect x="220.5" y="60.5" width="9" height="9" rx="2.5"/><rect x="230.5" y="60.5" width="9" height="9" rx="2.5"/><rect x="240.5" y="60.5" width="9" height="9" rx="2.5"/><rect x="260.5" y="60.5" width="9" height="9" rx="2.5"/><rect x="280.5" y="60.5" width="9" height="9" rx="2.5"/><rect x="130.5" y="70.5" width="9" height="9" rx="2.5"/><rect x="180.5" y="70.5" width="9" height="9" rx="2.5"/><rect x="190.5" y="70.5" width="9" height="9" rx="2.5"/><rect x="200.5" y="70.5" width="9" height="9" rx="2.5"/><rect x="250.5" y="70.5" width="9" height="9" rx="2.5"/><rect x="270.5" y="70.5" width="9" height="9" rx="2.5"/><rect x="280.5" y="70.5" width="9" height="9" rx="2.5"/><rect x="290.5" y="70.5" width="9" height="9" rx="2.5"/><rect x="300.5" y="70.5" width="9" height="9" rx="2.5"/><rect x="320.5" y="70.5" width="9" height="9" rx="2.5"/><rect x="140.5" y="80.5" width="9" height="9" rx="2.5"/><rect x="150.5" y="80.5" width="9" height="9" rx="2.5"/><rect x="160.5" y="80.5" width="9" height="9" rx="2.5"/><rect x="170.5" y="80.5" width="9" height="9" rx="2.5"/><rect x="180.5" y="80.5" width="9" height="9" rx="2.5"/><rect x="200.5" y="80.5" width="9" height="9" rx="2.5"/><rect x="300.5" y="80.5" width="9" height="9" rx="2.5"/><rect x="310.5" y="80.5" width="9" height="9" rx="2.5"/><rect x="120.5" y="90.5" width="9" height="9" rx="2.5"/><rect x="180.5" y="90.5" width="9" height="9" rx="2.5"/><rect x="190.5" y="90.5" width="9" height="9" rx="2.5"/><rect x="210.5" y="90.5" width="9" height="9" rx="2.5"/><rect x="230.5" y="90.5" width="9" height="9" rx="2.5"/><rect x="240.5" y="90.5" width="9" height="9" rx="2.5"/><rect x="250.5" y="90.5" width="9" height="9" rx="2.5"/><rect x="280.5" y="90.5" width="9" height="9" rx="2.5"/><rect x="320.5" y="90.5" width="9" height="9" rx="2.5"/><rect x="120.5" y="100.5" width="9" height="9" rx="2.5"/><rect x="140.5" y="100.5" width="9" height="9" rx="2.5"/><rect x="160.5" y="100.5" width="9" height="9" rx="2.5"/><rect x="180.5" y="100.5" width="9" height="9" rx="2.5"/><rect x="200.5" y="100.5" width="9" height="9" rx="2.5"/><rect x="220.5" y="100.5" width="9" height="9" rx="2.5"/><rect x="240.5" y="100.5" width="9" height="9" rx="2.5"/><rect x="260.5" y="100.5" width="9" height="9" rx="2.5"/><rect x="280.5" y="100.5" width="9" height="9" rx="2.5"/><rect x="300.5" y="100.5" width="9" height="9" rx="2.5"/><rect x="320.5" y="100.5" width="9" height="9" rx="2.5"/><rect x="120.5" y="110.5" width="9" height="9" rx="2.5"/><rect x="140.5" y="110.5" width="9" height="9" rx="2.5"/><rect x="160.5" y="110.5" width="9" height="9" rx="2.5"/><rect x="180.5" y="110.5" width="9" height="9" rx="2.5"/><rect x="190.5" y="110.5" width="9" height="9" rx="2.5"/><rect x="210.5" y="110.5" width="9" height="9" rx="2.5"/><rect x="230.5" y="110.5" width="9" height="9" rx="2.5"/><rect x="250.5" y="110.5" width="9" height="9" rx="2.5"/><rect x="260.5" y="110.5" width="9" height="9" rx="2.5"/><rect x="270.5" y="110.5" width="9" height="9" rx="2.5"/><rect x="280.5" y="110.5" width="9" height="9" rx="2.5"/><rect x="290.5" y="110.5" width="9" height="9" rx="2.5"/><rect x="80.5" y="120.5" width="9" height="9" rx="2.5"/><rect x="90.5" y="120.5" width="9" height="9" rx="2.5"/><rect x="100.5" y="120.5" width="9" height="9" rx="2.5"/><rect x="110.5" y="120.5" width="9" height="9" rx="2.5"/><rect x="130.5" y="120.5" width="9" height="9" rx="2.5"/><rect x="150.5" y="120.5" width="9" height="9" rx="2.5"/><rect x="170.5" y="120.5" width="9" height="9" rx="2.5"/><rect x="190.5" y="120.5" width="9" height="9" rx="2.5"/><rect x="200.5" y="120.5" width="9" height="9" rx="2.5"/><rect x="230.5" y="120.5" width="9" height="9" rx="2.5"/><rect x="240.5" y="120.5" width="9" height="9" rx="2.5"/><rect x="250.5" y="120.5" width="9" height="9" rx="2.5"/><rect x="260.5" y="120.5" width="9" height="9" rx="2.5"/><rect x="270.5" y="120.5" width="9" height="9" rx="2.5"/><rect x="280.5" y="120.5" width="9" height="9" rx="2.5"/><rect x="290.5" y="120.5" width="9" height="9" rx="2.5"/><rect x="310.5" y="120.5" width="9" height="9" rx="2.5"/><rect x="320.5" y="120.5" width="9" height="9" rx="2.5"/><rect x="340.5" y="120.5" width="9" height="9" rx="2.5"/><rect x="350.5" y="120.5" width="9" height="9" rx="2.5"/><rect x="390.5" y="120.5" width="9" height="9" rx="2.5"/><rect x="40.5" y="130.5" width="9" height="9" rx="2.5"/><rect x="50.5" y="130.5" width="9" height="9" rx="2.5"/><rect x="60.5" y="130.5" width="9" height="9" rx="2.5"/><rect x="70.5" y="130.5" width="9" height="9" rx="2.5"/><rect x="110.5" y="130.5" width="9" height="9" rx="2.5"/><rect x="130.5" y="130.5" width="9" height="9" rx="2.5"/><rect x="150.5" y="130.5" width="9" height="9" rx="2.5"/><rect x="170.5" y="130.5" width="9" height="9" rx="2.5"/><rect x="180.5" y="130.5" width="9" height="9" rx="2.5"/><rect x="200.5" y="130.5" width="9" height="9" rx="2.5"/><rect x="210.5" y="130.5" width="9" height="9" rx="2.5"/><rect x="240.5" y="130.5" width="9" height="9" rx="2.5"/><rect x="270.5" y="130.5" width="9" height="9" rx="2.5"/><rect x="300.5" y="130.5" width="9" height="9" rx="2.5"/><rect x="350.5" y="130.5" width="9" height="9" rx="2.5"/><rect x="360.5" y="130.5" width="9" height="9" rx="2.5"/><rect x="370.5" y="130.5" width="9" height="9" rx="2.5"/><rect x="380.5" y="130.5" width="9" height="9" rx="2.5"/><rect x="390.5" y="130.5" width="9" height="9" rx="2.5"/><rect x="40.5" y="140.5" width="9" height="9" rx="2.5"/><rect x="60.5" y="140.5" width="9" height="9" rx="2.5"/><rect x="70.5" y="140.5" width="9" height="9" rx="2.5"/><rect x="90.5" y="140.5" width="9" height="9" rx="2.5"/><rect x="100.5" y="140.5" width="9" height="9" rx="2.5"/><rect x="110.5" y="140.5" width="9" height="9" rx="2.5"/><rect x="120.5" y="140.5" width="9" height="9" rx="2.5"/><rect x="140.5" y="140.5" width="9" height="9" rx="2.5"/><rect x="150.5" y="140.5" width="9" height="9" rx="2.5"/><rect x="180.5" y="140.5" width="9" height="9" rx="2.5"/><rect x="230.5" y="140.5" width="9" height="9" rx="2.5"/><rect x="270.5" y="140.5" width="9" height="9" rx="2.5"/><rect x="290.5" y="140.5" width="9" height="9" rx="2.5"/><rect x="300.5" y="140.5" width="9" height="9" rx="2.5"/><rect x="310.5" y="140.5" width="9" height="9" rx="2.5"/><rect x="330.5" y="140.5" width="9" height="9" rx="2.5"/><rect x="350.5" y="140.5" width="9" height="9" rx="2.5"/><rect x="360.5" y="140.5" width="9" height="9" rx="2.5"/><rect x="40.5" y="150.5" width="9" height="9" rx="2.5"/><rect x="50.5" y="150.5" width="9" height="9" rx="2.5"/><rect x="60.5" y="150.5" width="9" height="9" rx="2.5"/><rect x="80.5" y="150.5" width="9" height="9" rx="2.5"/><rect x="90.5" y="150.5" width="9" height="9" rx="2.5"/><rect x="120.5" y="150.5" width="9" height="9" rx="2.5"/><rect x="130.5" y="150.5" width="9" height="9" rx="2.5"/><rect x="150.5" y="150.5" width="9" height="9" rx="2.5"/><rect x="170.5" y="150.5" width="9" height="9" rx="2.5"/><rect x="180.5" y="150.5" width="9" height="9" rx="2.5"/><rect x="190.5" y="150.5" width="9" height="9" rx="2.5"/><rect x="220.5" y="150.5" width="9" height="9" rx="2.5"/><rect x="250.5" y="150.5" width="9" height="9" rx="2.5"/><rect x="260.5" y="150.5" width="9" height="9" rx="2.5"/><rect x="280.5" y="150.5" width="9" height="9" rx="2.5"/><rect x="300.5" y="150.5" width="9" height="9" rx="2.5"/><rect x="310.5" y="150.5" width="9" height="9" rx="2.5"/><rect x="320.5" y="150.5" width="9" height="9" rx="2.5"/><rect x="330.5" y="150.5" width="9" height="9" rx="2.5"/><rect x="350.5" y="150.5" width="9" height="9" rx="2.5"/><rect x="360.5" y="150.5" width="9" height="9" rx="2.5"/><rect x="380.5" y="150.5" width="9" height="9" rx="2.5"/><rect x="390.5" y="150.5" width="9" height="9" rx="2.5"/><rect x="40.5" y="160.5" width="9" height="9" rx="2.5"/><rect x="50.5" y="160.5" width="9" height="9" rx="2.5"/><rect x="60.5" y="160.5" width="9" height="9" rx="2.5"/><rect x="70.5" y="160.5" width="9" height="9" rx="2.5"/><rect x="80.5" y="160.5" width="9" height="9" rx="2.5"/><rect x="100.5" y="160.5" width="9" height="9" rx="2.5"/><rect x="120.5" y="160.5" width="9" height="9" rx="2.5"/><rect x="150.5" y="160.5" width="9" height="9" rx="2.5"/><rect x="180.5" y="160.5" width="9" height="9" rx="2.5"/><rect x="190.5" y="160.5" width="9" height="9" rx="2.5"/><rect x="210.5" y="160.5" width="9" height="9" rx="2.5"/><rect x="240.5" y="160.5" width="9" height="9" rx="2.5"/><rect x="280.5" y="160.5" width="9" height="9" rx="2.5"/><rect x="320.5" y="160.5" width="9" height="9" rx="2.5"/><rect x="330.5" y="160.5" width="9" height="9" rx="2.5"/><rect x="340.5" y="160.5" width="9" height="9" rx="2.5"/><rect x="350.5" y="160.5" width="9" height="9" rx="2.5"/><rect x="380.5" y="160.5" width="9" height="9" rx="2.5"/><rect x="50.5" y="170.5" width="9" height="9" rx="2.5"/><rect x="110.5" y="170.5" width="9" height="9" rx="2.5"/><rect x="130.5" y="170.5" width="9" height="9" rx="2.5"/><rect x="150.5" y="170.5" width="9" height="9" rx="2.5"/><rect x="160.5" y="170.5" width="9" height="9" rx="2.5"/><rect x="170.5" y="170.5" width="9" height="9" rx="2.5"/><rect x="190.5" y="170.5" width="9" height="9" rx="2.5"/><rect x="220.5" y="170.5" width="9" height="9" rx="2.5"/><rect x="250.5" y="170.5" width="9" height="9" rx="2.5"/><rect x="270.5" y="170.5" width="9" height="9" rx="2.5"/><rect x="290.5" y="170.5" width="9" height="9" rx="2.5"/><rect x="310.5" y="170.5" width="9" height="9" rx="2.5"/><rect x="320.5" y="170.5" width="9" height="9" rx="2.5"/><rect x="330.5" y="170.5" width="9" height="9" rx="2.5"/><rect x="360.5" y="170.5" width="9" height="9" rx="2.5"/><rect x="380.5" y="170.5" width="9" height="9" rx="2.5"/><rect x="390.5" y="170.5" width="9" height="9" rx="2.5"/><rect x="50.5" y="180.5" width="9" height="9" rx="2.5"/><rect x="60.5" y="180.5" width="9" height="9" rx="2.5"/><rect x="90.5" y="180.5" width="9" height="9" rx="2.5"/><rect x="100.5" y="180.5" width="9" height="9" rx="2.5"/><rect x="110.5" y="180.5" width="9" height="9" rx="2.5"/><rect x="140.5" y="180.5" width="9" height="9" rx="2.5"/><rect x="280.5" y="180.5" width="9" height="9" rx="2.5"/><rect x="290.5" y="180.5" width="9" height="9" rx="2.5"/><rect x="300.5" y="180.5" width="9" height="9" rx="2.5"/><rect x="310.5" y="180.5" width="9" height="9" rx="2.5"/><rect x="360.5" y="180.5" width="9" height="9" rx="2.5"/><rect x="370.5" y="180.5" width="9" height="9" rx="2.5"/><rect x="380.5" y="180.5" width="9" height="9" rx="2.5"/><rect x="50.5" y="190.5" width="9" height="9" rx="2.5"/><rect x="70.5" y="190.5" width="9" height="9" rx="2.5"/><rect x="80.5" y="190.5" width="9" height="9" rx="2.5"/><rect x="90.5" y="190.5" width="9" height="9" rx="2.5"/><rect x="120.5" y="190.5" width="9" height="9" rx="2.5"/><rect x="160.5" y="190.5" width="9" height="9" rx="2.5"/><rect x="170.5" y="190.5" width="9" height="9" rx="2.5"/><rect x="300.5" y="190.5" width="9" height="9" rx="2.5"/><rect x="330.5" y="190.5" width="9" height="9" rx="2.5"/><rect x="350.5" y="190.5" width="9" height="9" rx="2.5"/><rect x="360.5" y="190.5" width="9" height="9" rx="2.5"/><rect x="380.5" y="190.5" width="9" height="9" rx="2.5"/><rect x="400.5" y="190.5" width="9" height="9" rx="2.5"/><rect x="40.5" y="200.5" width="9" height="9" rx="2.5"/><rect x="50.5" y="200.5" width="9" height="9" rx="2.5"/><rect x="80.5" y="200.5" width="9" height="9" rx="2.5"/><rect x="90.5" y="200.5" width="9" height="9" rx="2.5"/><rect x="100.5" y="200.5" width="9" height="9" rx="2.5"/><rect x="130.5" y="200.5" width="9" height="9" rx="2.5"/><rect x="270.5" y="200.5" width="9" height="9" rx="2.5"/><rect x="310.5" y="200.5" width="9" height="9" rx="2.5"/><rect x="330.5" y="200.5" width="9" height="9" rx="2.5"/><rect x="340.5" y="200.5" width="9" height="9" rx="2.5"/><rect x="350.5" y="200.5" width="9" height="9" rx="2.5"/><rect x="370.5" y="200.5" width="9" height="9" rx="2.5"/><rect x="380.5" y="200.5" width="9" height="9" rx="2.5"/><rect x="400.5" y="200.5" width="9" height="9" rx="2.5"/><rect x="40.5" y="210.5" width="9" height="9" rx="2.5"/><rect x="70.5" y="210.5" width="9" height="9" rx="2.5"/><rect x="80.5" y="210.5" width="9" height="9" rx="2.5"/><rect x="120.5" y="210.5" width="9" height="9" rx="2.5"/><rect x="130.5" y="210.5" width="9" height="9" rx="2.5"/><rect x="170.5" y="210.5" width="9" height="9" rx="2.5"/><rect x="280.5" y="210.5" width="9" height="9" rx="2.5"/><rect x="300.5" y="210.5" width="9" height="9" rx="2.5"/><rect x="310.5" y="210.5" width="9" height="9" rx="2.5"/><rect x="360.5" y="210.5" width="9" height="9" rx="2.5"/><rect x="40.5" y="220.5" width="9" height="9" rx="2.5"/><rect x="70.5" y="220.5" width="9" height="9" rx="2.5"/><rect x="90.5" y="220.5" width="9" height="9" rx="2.5"/><rect x="100.5" y="220.5" width="9" height="9" rx="2.5"/><rect x="110.5" y="220.5" width="9" height="9" rx="2.5"/><rect x="120.5" y="220.5" width="9" height="9" rx="2.5"/><rect x="160.5" y="220.5" width="9" height="9" rx="2.5"/><rect x="290.5" y="220.5" width="9" height="9" rx="2.5"/><rect x="300.5" y="220.5" width="9" height="9" rx="2.5"/><rect x="310.5" y="220.5" width="9" height="9" rx="2.5"/><rect x="330.5" y="220.5" width="9" height="9" rx="2.5"/><rect x="340.5" y="220.5" width="9" height="9" rx="2.5"/><rect x="350.5" y="220.5" width="9" height="9" rx="2.5"/><rect x="40.5" y="230.5" width="9" height="9" rx="2.5"/><rect x="50.5" y="230.5" width="9" height="9" rx="2.5"/><rect x="60.5" y="230.5" width="9" height="9" rx="2.5"/><rect x="70.5" y="230.5" width="9" height="9" rx="2.5"/><rect x="80.5" y="230.5" width="9" height="9" rx="2.5"/><rect x="110.5" y="230.5" width="9" height="9" rx="2.5"/><rect x="140.5" y="230.5" width="9" height="9" rx="2.5"/><rect x="160.5" y="230.5" width="9" height="9" rx="2.5"/><rect x="170.5" y="230.5" width="9" height="9" rx="2.5"/><rect x="270.5" y="230.5" width="9" height="9" rx="2.5"/><rect x="280.5" y="230.5" width="9" height="9" rx="2.5"/><rect x="300.5" y="230.5" width="9" height="9" rx="2.5"/><rect x="350.5" y="230.5" width="9" height="9" rx="2.5"/><rect x="380.5" y="230.5" width="9" height="9" rx="2.5"/><rect x="390.5" y="230.5" width="9" height="9" rx="2.5"/><rect x="400.5" y="230.5" width="9" height="9" rx="2.5"/><rect x="50.5" y="240.5" width="9" height="9" rx="2.5"/><rect x="60.5" y="240.5" width="9" height="9" rx="2.5"/><rect x="100.5" y="240.5" width="9" height="9" rx="2.5"/><rect x="120.5" y="240.5" width="9" height="9" rx="2.5"/><rect x="270.5" y="240.5" width="9" height="9" rx="2.5"/><rect x="310.5" y="240.5" width="9" height="9" rx="2.5"/><rect x="330.5" y="240.5" width="9" height="9" rx="2.5"/><rect x="340.5" y="240.5" width="9" height="9" rx="2.5"/><rect x="370.5" y="240.5" width="9" height="9" rx="2.5"/><rect x="380.5" y="240.5" width="9" height="9" rx="2.5"/><rect x="390.5" y="240.5" width="9" height="9" rx="2.5"/><rect x="400.5" y="240.5" width="9" height="9" rx="2.5"/><rect x="40.5" y="250.5" width="9" height="9" rx="2.5"/><rect x="50.5" y="250.5" width="9" height="9" rx="2.5"/><rect x="80.5" y="250.5" width="9" height="9" rx="2.5"/><rect x="90.5" y="250.5" width="9" height="9" rx="2.5"/><rect x="130.5" y="250.5" width="9" height="9" rx="2.5"/><rect x="150.5" y="250.5" width="9" height="9" rx="2.5"/><rect x="170.5" y="250.5" width="9" height="9" rx="2.5"/><rect x="280.5" y="250.5" width="9" height="9" rx="2.5"/><rect x="290.5" y="250.5" width="9" height="9" rx="2.5"/><rect x="310.5" y="250.5" width="9" height="9" rx="2.5"/><rect x="360.5" y="250.5" width="9" height="9" rx="2.5"/><rect x="370.5" y="250.5" width="9" height="9" rx="2.5"/><rect x="40.5" y="260.5" width="9" height="9" rx="2.5"/><rect x="80.5" y="260.5" width="9" height="9" rx="2.5"/><rect x="100.5" y="260.5" width="9" height="9" rx="2.5"/><rect x="110.5" y="260.5" width="9" height="9" rx="2.5"/><rect x="120.5" y="260.5" width="9" height="9" rx="2.5"/><rect x="140.5" y="260.5" width="9" height="9" rx="2.5"/><rect x="150.5" y="260.5" width="9" height="9" rx="2.5"/><rect x="270.5" y="260.5" width="9" height="9" rx="2.5"/><rect x="280.5" y="260.5" width="9" height="9" rx="2.5"/><rect x="310.5" y="260.5" width="9" height="9" rx="2.5"/><rect x="320.5" y="260.5" width="9" height="9" rx="2.5"/><rect x="340.5" y="260.5" width="9" height="9" rx="2.5"/><rect x="380.5" y="260.5" width="9" height="9" rx="2.5"/><rect x="40.5" y="270.5" width="9" height="9" rx="2.5"/><rect x="50.5" y="270.5" width="9" height="9" rx="2.5"/><rect x="60.5" y="270.5" width="9" height="9" rx="2.5"/><rect x="70.5" y="270.5" width="9" height="9" rx="2.5"/><rect x="110.5" y="270.5" width="9" height="9" rx="2.5"/><rect x="120.5" y="270.5" width="9" height="9" rx="2.5"/><rect x="130.5" y="270.5" width="9" height="9" rx="2.5"/><rect x="160.5" y="270.5" width="9" height="9" rx="2.5"/><rect x="170.5" y="270.5" width="9" height="9" rx="2.5"/><rect x="200.5" y="270.5" width="9" height="9" rx="2.5"/><rect x="230.5" y="270.5" width="9" height="9" rx="2.5"/><rect x="270.5" y="270.5" width="9" height="9" rx="2.5"/><rect x="280.5" y="270.5" width="9" height="9" rx="2.5"/><rect x="300.5" y="270.5" width="9" height="9" rx="2.5"/><rect x="320.5" y="270.5" width="9" height="9" rx="2.5"/><rect x="340.5" y="270.5" width="9" height="9" rx="2.5"/><rect x="350.5" y="270.5" width="9" height="9" rx="2.5"/><rect x="380.5" y="270.5" width="9" height="9" rx="2.5"/><rect x="390.5" y="270.5" width="9" height="9" rx="2.5"/><rect x="400.5" y="270.5" width="9" height="9" rx="2.5"/><rect x="60.5" y="280.5" width="9" height="9" rx="2.5"/><rect x="80.5" y="280.5" width="9" height="9" rx="2.5"/><rect x="100.5" y="280.5" width="9" height="9" rx="2.5"/><rect x="120.5" y="280.5" width="9" height="9" rx="2.5"/><rect x="150.5" y="280.5" width="9" height="9" rx="2.5"/><rect x="160.5" y="280.5" width="9" height="9" rx="2.5"/><rect x="190.5" y="280.5" width="9" height="9" rx="2.5"/><rect x="230.5" y="280.5" width="9" height="9" rx="2.5"/><rect x="290.5" y="280.5" width="9" height="9" rx="2.5"/><rect x="300.5" y="280.5" width="9" height="9" rx="2.5"/><rect x="310.5" y="280.5" width="9" height="9" rx="2.5"/><rect x="340.5" y="280.5" width="9" height="9" rx="2.5"/><rect x="350.5" y="280.5" width="9" height="9" rx="2.5"/><rect x="380.5" y="280.5" width="9" height="9" rx="2.5"/><rect x="390.5" y="280.5" width="9" height="9" rx="2.5"/><rect x="400.5" y="280.5" width="9" height="9" rx="2.5"/><rect x="40.5" y="290.5" width="9" height="9" rx="2.5"/><rect x="70.5" y="290.5" width="9" height="9" rx="2.5"/><rect x="80.5" y="290.5" width="9" height="9" rx="2.5"/><rect x="110.5" y="290.5" width="9" height="9" rx="2.5"/><rect x="130.5" y="290.5" width="9" height="9" rx="2.5"/><rect x="160.5" y="290.5" width="9" height="9" rx="2.5"/><rect x="170.5" y="290.5" width="9" height="9" rx="2.5"/><rect x="190.5" y="290.5" width="9" height="9" rx="2.5"/><rect x="210.5" y="290.5" width="9" height="9" rx="2.5"/><rect x="220.5" y="290.5" width="9" height="9" rx="2.5"/><rect x="260.5" y="290.5" width="9" height="9" rx="2.5"/><rect x="280.5" y="290.5" width="9" height="9" rx="2.5"/><rect x="290.5" y="290.5" width="9" height="9" rx="2.5"/><rect x="320.5" y="290.5" width="9" height="9" rx="2.5"/><rect x="340.5" y="290.5" width="9" height="9" rx="2.5"/><rect x="360.5" y="290.5" width="9" height="9" rx="2.5"/><rect x="370.5" y="290.5" width="9" height="9" rx="2.5"/><rect x="380.5" y="290.5" width="9" height="9" rx="2.5"/><rect x="80.5" y="300.5" width="9" height="9" rx="2.5"/><rect x="90.5" y="300.5" width="9" height="9" rx="2.5"/><rect x="100.5" y="300.5" width="9" height="9" rx="2.5"/><rect x="110.5" y="300.5" width="9" height="9" rx="2.5"/><rect x="120.5" y="300.5" width="9" height="9" rx="2.5"/><rect x="160.5" y="300.5" width="9" height="9" rx="2.5"/><rect x="170.5" y="300.5" width="9" height="9" rx="2.5"/><rect x="190.5" y="300.5" width="9" height="9" rx="2.5"/><rect x="220.5" y="300.5" width="9" height="9" rx="2.5"/><rect x="230.5" y="300.5" width="9" height="9" rx="2.5"/><rect x="250.5" y="300.5" width="9" height="9" rx="2.5"/><rect x="260.5" y="300.5" width="9" height="9" rx="2.5"/><rect x="270.5" y="300.5" width="9" height="9" rx="2.5"/><rect x="280.5" y="300.5" width="9" height="9" rx="2.5"/><rect x="290.5" y="300.5" width="9" height="9" rx="2.5"/><rect x="300.5" y="300.5" width="9" height="9" rx="2.5"/><rect x="320.5" y="300.5" width="9" height="9" rx="2.5"/><rect x="330.5" y="300.5" width="9" height="9" rx="2.5"/><rect x="350.5" y="300.5" width="9" height="9" rx="2.5"/><rect x="370.5" y="300.5" width="9" height="9" rx="2.5"/><rect x="380.5" y="300.5" width="9" height="9" rx="2.5"/><rect x="70.5" y="310.5" width="9" height="9" rx="2.5"/><rect x="110.5" y="310.5" width="9" height="9" rx="2.5"/><rect x="120.5" y="310.5" width="9" height="9" rx="2.5"/><rect x="130.5" y="310.5" width="9" height="9" rx="2.5"/><rect x="150.5" y="310.5" width="9" height="9" rx="2.5"/><rect x="160.5" y="310.5" width="9" height="9" rx="2.5"/><rect x="170.5" y="310.5" width="9" height="9" rx="2.5"/><rect x="180.5" y="310.5" width="9" height="9" rx="2.5"/><rect x="200.5" y="310.5" width="9" height="9" rx="2.5"/><rect x="210.5" y="310.5" width="9" height="9" rx="2.5"/><rect x="220.5" y="310.5" width="9" height="9" rx="2.5"/><rect x="270.5" y="310.5" width="9" height="9" rx="2.5"/><rect x="300.5" y="310.5" width="9" height="9" rx="2.5"/><rect x="340.5" y="310.5" width="9" height="9" rx="2.5"/><rect x="360.5" y="310.5" width="9" height="9" rx="2.5"/><rect x="380.5" y="310.5" width="9" height="9" rx="2.5"/><rect x="390.5" y="310.5" width="9" height="9" rx="2.5"/><rect x="40.5" y="320.5" width="9" height="9" rx="2.5"/><rect x="50.5" y="320.5" width="9" height="9" rx="2.5"/><rect x="60.5" y="320.5" width="9" height="9" rx="2.5"/><rect x="80.5" y="320.5" width="9" height="9" rx="2.5"/><rect x="90.5" y="320.5" width="9" height="9" rx="2.5"/><rect x="100.5" y="320.5" width="9" height="9" rx="2.5"/><rect x="120.5" y="320.5" width="9" height="9" rx="2.5"/><rect x="130.5" y="320.5" width="9" height="9" rx="2.5"/><rect x="160.5" y="320.5" width="9" height="9" rx="2.5"/><rect x="180.5" y="320.5" width="9" height="9" rx="2.5"/><rect x="190.5" y="320.5" width="9" height="9" rx="2.5"/><rect x="200.5" y="320.5" width="9" height="9" rx="2.5"/><rect x="240.5" y="320.5" width="9" height="9" rx="2.5"/><rect x="260.5" y="320.5" width="9" height="9" rx="2.5"/><rect x="280.5" y="320.5" width="9" height="9" rx="2.5"/><rect x="310.5" y="320.5" width="9" height="9" rx="2.5"/><rect x="320.5" y="320.5" width="9" height="9" rx="2.5"/><rect x="330.5" y="320.5" width="9" height="9" rx="2.5"/><rect x="340.5" y="320.5" width="9" height="9" rx="2.5"/><rect x="350.5" y="320.5" width="9" height="9" rx="2.5"/><rect x="360.5" y="320.5" width="9" height="9" rx="2.5"/><rect x="380.5" y="320.5" width="9" height="9" rx="2.5"/><rect x="390.5" y="320.5" width="9" height="9" rx="2.5"/><rect x="400.5" y="320.5" width="9" height="9" rx="2.5"/><rect x="120.5" y="330.5" width="9" height="9" rx="2.5"/><rect x="140.5" y="330.5" width="9" height="9" rx="2.5"/><rect x="150.5" y="330.5" width="9" height="9" rx="2.5"/><rect x="170.5" y="330.5" width="9" height="9" rx="2.5"/><rect x="180.5" y="330.5" width="9" height="9" rx="2.5"/><rect x="190.5" y="330.5" width="9" height="9" rx="2.5"/><rect x="200.5" y="330.5" width="9" height="9" rx="2.5"/><rect x="220.5" y="330.5" width="9" height="9" rx="2.5"/><rect x="230.5" y="330.5" width="9" height="9" rx="2.5"/><rect x="250.5" y="330.5" width="9" height="9" rx="2.5"/><rect x="260.5" y="330.5" width="9" height="9" rx="2.5"/><rect x="270.5" y="330.5" width="9" height="9" rx="2.5"/><rect x="320.5" y="330.5" width="9" height="9" rx="2.5"/><rect x="360.5" y="330.5" width="9" height="9" rx="2.5"/><rect x="370.5" y="330.5" width="9" height="9" rx="2.5"/><rect x="390.5" y="330.5" width="9" height="9" rx="2.5"/><rect x="120.5" y="340.5" width="9" height="9" rx="2.5"/><rect x="130.5" y="340.5" width="9" height="9" rx="2.5"/><rect x="140.5" y="340.5" width="9" height="9" rx="2.5"/><rect x="150.5" y="340.5" width="9" height="9" rx="2.5"/><rect x="180.5" y="340.5" width="9" height="9" rx="2.5"/><rect x="190.5" y="340.5" width="9" height="9" rx="2.5"/><rect x="200.5" y="340.5" width="9" height="9" rx="2.5"/><rect x="210.5" y="340.5" width="9" height="9" rx="2.5"/><rect x="230.5" y="340.5" width="9" height="9" rx="2.5"/><rect x="260.5" y="340.5" width="9" height="9" rx="2.5"/><rect x="270.5" y="340.5" width="9" height="9" rx="2.5"/><rect x="320.5" y="340.5" width="9" height="9" rx="2.5"/><rect x="340.5" y="340.5" width="9" height="9" rx="2.5"/><rect x="360.5" y="340.5" width="9" height="9" rx="2.5"/><rect x="370.5" y="340.5" width="9" height="9" rx="2.5"/><rect x="380.5" y="340.5" width="9" height="9" rx="2.5"/><rect x="120.5" y="350.5" width="9" height="9" rx="2.5"/><rect x="130.5" y="350.5" width="9" height="9" rx="2.5"/><rect x="160.5" y="350.5" width="9" height="9" rx="2.5"/><rect x="170.5" y="350.5" width="9" height="9" rx="2.5"/><rect x="180.5" y="350.5" width="9" height="9" rx="2.5"/><rect x="190.5" y="350.5" width="9" height="9" rx="2.5"/><rect x="200.5" y="350.5" width="9" height="9" rx="2.5"/><rect x="210.5" y="350.5" width="9" height="9" rx="2.5"/><rect x="230.5" y="350.5" width="9" height="9" rx="2.5"/><rect x="240.5" y="350.5" width="9" height="9" rx="2.5"/><rect x="250.5" y="350.5" width="9" height="9" rx="2.5"/><rect x="270.5" y="350.5" width="9" height="9" rx="2.5"/><rect x="280.5" y="350.5" width="9" height="9" rx="2.5"/><rect x="300.5" y="350.5" width="9" height="9" rx="2.5"/><rect x="310.5" y="350.5" width="9" height="9" rx="2.5"/><rect x="320.5" y="350.5" width="9" height="9" rx="2.5"/><rect x="360.5" y="350.5" width="9" height="9" rx="2.5"/><rect x="380.5" y="350.5" width="9" height="9" rx="2.5"/><rect x="390.5" y="350.5" width="9" height="9" rx="2.5"/><rect x="400.5" y="350.5" width="9" height="9" rx="2.5"/><rect x="120.5" y="360.5" width="9" height="9" rx="2.5"/><rect x="140.5" y="360.5" width="9" height="9" rx="2.5"/><rect x="160.5" y="360.5" width="9" height="9" rx="2.5"/><rect x="210.5" y="360.5" width="9" height="9" rx="2.5"/><rect x="220.5" y="360.5" width="9" height="9" rx="2.5"/><rect x="250.5" y="360.5" width="9" height="9" rx="2.5"/><rect x="280.5" y="360.5" width="9" height="9" rx="2.5"/><rect x="320.5" y="360.5" width="9" height="9" rx="2.5"/><rect x="330.5" y="360.5" width="9" height="9" rx="2.5"/><rect x="340.5" y="360.5" width="9" height="9" rx="2.5"/><rect x="350.5" y="360.5" width="9" height="9" rx="2.5"/><rect x="360.5" y="360.5" width="9" height="9" rx="2.5"/><rect x="370.5" y="360.5" width="9" height="9" rx="2.5"/><rect x="380.5" y="360.5" width="9" height="9" rx="2.5"/><rect x="130.5" y="370.5" width="9" height="9" rx="2.5"/><rect x="160.5" y="370.5" width="9" height="9" rx="2.5"/><rect x="170.5" y="370.5" width="9" height="9" rx="2.5"/><rect x="180.5" y="370.5" width="9" height="9" rx="2.5"/><rect x="190.5" y="370.5" width="9" height="9" rx="2.5"/><rect x="200.5" y="370.5" width="9" height="9" rx="2.5"/><rect x="210.5" y="370.5" width="9" height="9" rx="2.5"/><rect x="230.5" y="370.5" width="9" height="9" rx="2.5"/><rect x="240.5" y="370.5" width="9" height="9" rx="2.5"/><rect x="260.5" y="370.5" width="9" height="9" rx="2.5"/><rect x="290.5" y="370.5" width="9" height="9" rx="2.5"/><rect x="310.5" y="370.5" width="9" height="9" rx="2.5"/><rect x="320.5" y="370.5" width="9" height="9" rx="2.5"/><rect x="340.5" y="370.5" width="9" height="9" rx="2.5"/><rect x="350.5" y="370.5" width="9" height="9" rx="2.5"/><rect x="370.5" y="370.5" width="9" height="9" rx="2.5"/><rect x="130.5" y="380.5" width="9" height="9" rx="2.5"/><rect x="140.5" y="380.5" width="9" height="9" rx="2.5"/><rect x="170.5" y="380.5" width="9" height="9" rx="2.5"/><rect x="200.5" y="380.5" width="9" height="9" rx="2.5"/><rect x="230.5" y="380.5" width="9" height="9" rx="2.5"/><rect x="240.5" y="380.5" width="9" height="9" rx="2.5"/><rect x="260.5" y="380.5" width="9" height="9" rx="2.5"/><rect x="290.5" y="380.5" width="9" height="9" rx="2.5"/><rect x="340.5" y="380.5" width="9" height="9" rx="2.5"/><rect x="370.5" y="380.5" width="9" height="9" rx="2.5"/><rect x="380.5" y="380.5" width="9" height="9" rx="2.5"/><rect x="390.5" y="380.5" width="9" height="9" rx="2.5"/><rect x="170.5" y="390.5" width="9" height="9" rx="2.5"/><rect x="180.5" y="390.5" width="9" height="9" rx="2.5"/><rect x="200.5" y="390.5" width="9" height="9" rx="2.5"/><rect x="210.5" y="390.5" width="9" height="9" rx="2.5"/><rect x="230.5" y="390.5" width="9" height="9" rx="2.5"/><rect x="260.5" y="390.5" width="9" height="9" rx="2.5"/><rect x="280.5" y="390.5" width="9" height="9" rx="2.5"/><rect x="310.5" y="390.5" width="9" height="9" rx="2.5"/><rect x="330.5" y="390.5" width="9" height="9" rx="2.5"/><rect x="340.5" y="390.5" width="9" height="9" rx="2.5"/><rect x="360.5" y="390.5" width="9" height="9" rx="2.5"/><rect x="380.5" y="390.5" width="9" height="9" rx="2.5"/><rect x="390.5" y="390.5" width="9" height="9" rx="2.5"/><rect x="140.5" y="400.5" width="9" height="9" rx="2.5"/><rect x="150.5" y="400.5" width="9" height="9" rx="2.5"/><rect x="170.5" y="400.5" width="9" height="9" rx="2.5"/><rect x="200.5" y="400.5" width="9" height="9" rx="2.5"/><rect x="220.5" y="400.5" width="9" height="9" rx="2.5"/><rect x="240.5" y="400.5" width="9" height="9" rx="2.5"/><rect x="250.5" y="400.5" width="9" height="9" rx="2.5"/><rect x="260.5" y="400.5" width="9" height="9" rx="2.5"/><rect x="270.5" y="400.5" width="9" height="9" rx="2.5"/><rect x="310.5" y="400.5" width="9" height="9" rx="2.5"/><rect x="330.5" y="400.5" width="9" height="9" rx="2.5"/><rect x="340.5" y="400.5" width="9" height="9" rx="2.5"/><rect x="350.5" y="400.5" width="9" height="9" rx="2.5"/><rect x="360.5" y="400.5" width="9" height="9" rx="2.5"/><rect x="370.5" y="400.5" width="9" height="9" rx="2.5"/><rect x="380.5" y="400.5" width="9" height="9" rx="2.5"/><rect x="390.5" y="400.5" width="9" height="9" rx="2.5"/><rect x="400.5" y="400.5" width="9" height="9" rx="2.5"/></g>
    <rect x="45" y="45" width="60" height="60" rx="18" fill="none" stroke="#0f1a2b" stroke-width="10"/>
      <rect x="60" y="60" width="30" height="30" rx="10" fill="#0f1a2b"/><rect x="345" y="45" width="60" height="60" rx="18" fill="none" stroke="#0f1a2b" stroke-width="10"/>
      <rect x="360" y="60" width="30" height="30" rx="10" fill="#0f1a2b"/><rect x="45" y="345" width="60" height="60" rx="18" fill="none" stroke="#0f1a2b" stroke-width="10"/>
      <rect x="60" y="360" width="30" height="30" rx="10" fill="#0f1a2b"/>
    <rect x="190" y="190" width="70" height="70" rx="15.4" fill="#eef1f6" stroke="#0f1a2b" stroke-width="3"/>
    <g transform="translate(204 204) scale(0.7777777777777778)" fill="#3b82f6"><rect width="14" height="14"/><rect x="20" width="14" height="14"/><rect x="40" width="14" height="14"/><rect x="20" y="20" width="14" height="14"/><rect x="40" y="20" width="14" height="14"/><rect x="40" y="40" width="14" height="14"/></g>
  <text x="225" y="470" text-anchor="middle" font-family="Arial, Helvetica, sans-serif" font-weight="700" font-size="23" fill="#0f1a2b">Aponte a câmera e veja meus projetos</text>
  <text x="225" y="506" text-anchor="middle" font-family="Arial, Helvetica, sans-serif" font-size="20" fill="#3b82f6">wzsstudio.github.io/portfolio</text>
</svg>